<?xml version="1.0" encoding="utf-8"?>
<!-- Generator: Adobe Illustrator 24.0.2, SVG Export Plug-In . SVG Version: 6.00 Build 0)  -->
<svg version="1.1" id="Drawing" xmlns="http://www.w3.org/2000/svg" xmlns:xlink="http://www.w3.org/1999/xlink" x="0px" y="0px"
	 viewBox="0 0 1366 768" style="enable-background:new 0 0 1366 768;" xml:space="preserve">
<style type="text/css">
	.st0{fill:url(#SVGID_1_);stroke:#000000;stroke-miterlimit:10;}
	.st1{fill:url(#SVGID_2_);stroke:#000000;stroke-miterlimit:10;}
	.st2{fill:url(#SVGID_3_);stroke:#000000;stroke-miterlimit:10;}
	.st3{fill:url(#SVGID_4_);stroke:#000000;stroke-miterlimit:10;}
	.st4{fill:url(#SVGID_5_);stroke:#000000;stroke-miterlimit:10;}
	.st5{fill:url(#SVGID_6_);stroke:#000000;stroke-miterlimit:10;}
	.st6{fill:url(#SVGID_7_);stroke:#000000;stroke-miterlimit:10;}
	.st7{fill:url(#SVGID_8_);stroke:#000000;stroke-miterlimit:10;}
	.st8{fill:url(#SVGID_9_);stroke:#000000;stroke-miterlimit:10;}
	.st9{fill:url(#SVGID_10_);stroke:#000000;stroke-miterlimit:10;}
	.st10{fill:url(#SVGID_11_);stroke:#000000;stroke-miterlimit:10;}
	.st11{fill:url(#SVGID_12_);stroke:#000000;stroke-miterlimit:10;}
	.st12{fill:url(#SVGID_13_);stroke:#000000;stroke-miterlimit:10;}
	.st13{fill:url(#SVGID_14_);}
	.st14{font-family:'MyriadPro-Regular';}
	.st15{font-size:91.0767px;}
</style>
<g>
	<linearGradient id="SVGID_1_" gradientUnits="userSpaceOnUse" x1="351" y1="418.614" x2="651.4608" y2="418.614">
		<stop  offset="0.1155" style="stop-color:#2E3192"/>
		<stop  offset="0.4637" style="stop-color:#662D91"/>
		<stop  offset="0.8557" style="stop-color:#0000FF"/>
	</linearGradient>
	<polygon class="st0" points="496.62,303.71 461.6,293.65 432.11,293.65 397.08,303.71 374.96,323.84 360.22,354.03 351,380.87 
		351,404.36 358.37,429.52 362.06,444.61 378.65,479.84 387.87,505 411.83,531.84 433.95,551.97 452.38,551.97 470.82,551.97 
		485.56,551.97 505.84,543.58 518.74,540.23 531.65,543.58 553.76,551.97 566.67,551.97 586.94,551.97 599.85,551.97 612.75,535.2 
		623.81,523.45 638.56,499.97 651.46,483.19 651.46,458.03 633.03,447.97 616.44,422.81 607.22,402.68 607.22,380.87 607.22,359.07 
		612.75,349 621.97,337.26 636.71,327.19 638.56,318.81 621.97,302.03 598,293.65 572.2,285.26 548.24,293.65 516.9,303.71 	"/>
	<linearGradient id="SVGID_2_" gradientUnits="userSpaceOnUse" x1="505.8387" y1="239.1293" x2="577.7281" y2="239.1293">
		<stop  offset="0.1155" style="stop-color:#2E3192"/>
		<stop  offset="0.4637" style="stop-color:#662D91"/>
		<stop  offset="0.8557" style="stop-color:#0000FF"/>
	</linearGradient>
	<polygon class="st1" points="505.84,285.26 505.84,273.52 505.84,256.74 515.06,243.32 526.12,231.58 535.33,218.16 548.24,208.1 
		577.73,193 577.73,209.77 577.73,238.29 562.98,250.03 553.76,260.1 540.86,271.84 	"/>
	<linearGradient id="SVGID_3_" gradientUnits="userSpaceOnUse" x1="616.4378" y1="393.4526" x2="751" y2="393.4526">
		<stop  offset="0.1155" style="stop-color:#2E3192"/>
		<stop  offset="0.4637" style="stop-color:#662D91"/>
		<stop  offset="0.8557" style="stop-color:#0000FF"/>
	</linearGradient>
	<ellipse class="st2" cx="683.72" cy="393.45" rx="67.28" ry="61.23"/>
	<linearGradient id="SVGID_4_" gradientUnits="userSpaceOnUse" x1="664.3641" y1="533.5178" x2="701.2304" y2="533.5178">
		<stop  offset="0.1155" style="stop-color:#2E3192"/>
		<stop  offset="0.4637" style="stop-color:#662D91"/>
		<stop  offset="0.8557" style="stop-color:#0000FF"/>
	</linearGradient>
	<rect x="664.36" y="464.74" class="st3" width="36.87" height="137.55"/>
	<g>
		<linearGradient id="SVGID_5_" gradientUnits="userSpaceOnUse" x1="633.9493" y1="389.757" x2="725.5102" y2="389.757">
			<stop  offset="0.1155" style="stop-color:#FFFFFF"/>
			<stop  offset="0.6238" style="stop-color:#FFFFFF"/>
			<stop  offset="0.8594" style="stop-color:#FFFFFF"/>
		</linearGradient>
		<rect x="633.95" y="383.23" class="st4" width="91.56" height="13.05"/>
		<g>
			<linearGradient id="SVGID_6_" gradientUnits="userSpaceOnUse" x1="644.3613" y1="384.2404" x2="678.6829" y2="384.2404">
				<stop  offset="0.1155" style="stop-color:#FFFFFF"/>
				<stop  offset="0.6238" style="stop-color:#FFFFFF"/>
				<stop  offset="0.8594" style="stop-color:#FFFFFF"/>
			</linearGradient>
			<polygon class="st5" points="678.68,365.75 653.69,409.7 644.36,402.73 669.35,358.78 			"/>
			<linearGradient id="SVGID_7_" gradientUnits="userSpaceOnUse" x1="663.8251" y1="371.9668" x2="673.5432" y2="371.9668">
				<stop  offset="0.1155" style="stop-color:#FFFFFF"/>
				<stop  offset="0.6238" style="stop-color:#FFFFFF"/>
				<stop  offset="0.8594" style="stop-color:#FFFFFF"/>
			</linearGradient>
			<line class="st6" x1="673.54" y1="375.29" x2="663.83" y2="368.65"/>
			<g>
				<linearGradient id="SVGID_8_" gradientUnits="userSpaceOnUse" x1="641.6746" y1="413.823" x2="643.0868" y2="413.823">
					<stop  offset="0.1155" style="stop-color:#FFFFFF"/>
					<stop  offset="0.6238" style="stop-color:#FFFFFF"/>
					<stop  offset="0.8594" style="stop-color:#FFFFFF"/>
				</linearGradient>
				<line class="st7" x1="641.67" y1="405.51" x2="643.09" y2="422.14"/>
				<linearGradient id="SVGID_9_" gradientUnits="userSpaceOnUse" x1="641.5618" y1="410.4435" x2="651.5191" y2="410.4435">
					<stop  offset="0.1155" style="stop-color:#FFFFFF"/>
					<stop  offset="0.6238" style="stop-color:#FFFFFF"/>
					<stop  offset="0.8594" style="stop-color:#FFFFFF"/>
				</linearGradient>
				<line class="st8" x1="641.56" y1="406.16" x2="651.52" y2="414.73"/>
				<linearGradient id="SVGID_10_" gradientUnits="userSpaceOnUse" x1="642.9577" y1="418.48" x2="651.5191" y2="418.48">
					<stop  offset="0.1155" style="stop-color:#FFFFFF"/>
					<stop  offset="0.6238" style="stop-color:#FFFFFF"/>
					<stop  offset="0.8594" style="stop-color:#FFFFFF"/>
				</linearGradient>
				<line class="st9" x1="651.52" y1="414.73" x2="642.96" y2="422.23"/>
			</g>
		</g>
		<g>
			<linearGradient id="SVGID_11_" gradientUnits="userSpaceOnUse" x1="674.6638" y1="381.3151" x2="724.6547" y2="381.3151">
				<stop  offset="0.1155" style="stop-color:#FFFFFF"/>
				<stop  offset="0.6238" style="stop-color:#FFFFFF"/>
				<stop  offset="0.8594" style="stop-color:#FFFFFF"/>
			</linearGradient>
			<polygon class="st10" points="724.65,408.65 716.11,416.15 674.66,353.98 683.21,346.48 			"/>
			<linearGradient id="SVGID_12_" gradientUnits="userSpaceOnUse" x1="719.1332" y1="424.6859" x2="731.6451" y2="424.6859">
				<stop  offset="0.1155" style="stop-color:#FFFFFF"/>
				<stop  offset="0.6238" style="stop-color:#FFFFFF"/>
				<stop  offset="0.8594" style="stop-color:#FFFFFF"/>
			</linearGradient>
			<polyline class="st11" points="719.13,419.03 725.7,415.66 730.92,421.28 731.65,428.03 729.48,433.71 725.73,428.86 
				722.54,429.31 719.86,425.78 719.13,419.03 			"/>
			<linearGradient id="SVGID_13_" gradientUnits="userSpaceOnUse" x1="710.6625" y1="404.5119" x2="719.5711" y2="404.5119">
				<stop  offset="0.1155" style="stop-color:#FFFFFF"/>
				<stop  offset="0.6238" style="stop-color:#FFFFFF"/>
				<stop  offset="0.8594" style="stop-color:#FFFFFF"/>
			</linearGradient>
			<line class="st12" x1="710.66" y1="407.63" x2="719.57" y2="401.39"/>
		</g>
	</g>
</g>
<linearGradient id="SVGID_14_" gradientUnits="userSpaceOnUse" x1="708" y1="555" x2="913" y2="555">
	<stop  offset="0.1155" style="stop-color:#2E3192"/>
	<stop  offset="0.4637" style="stop-color:#662D91"/>
	<stop  offset="0.8557" style="stop-color:#0000FF"/>
</linearGradient>
<path class="st13" d="M879,602H742c-18.78,0-34-15.22-34-34v-26c0-18.78,15.22-34,34-34h137c18.78,0,34,15.22,34,34v26
	C913,586.78,897.78,602,879,602z"/>
<text transform="matrix(1.0014 0 0 1 708 584.2314)" class="st14 st15">Store</text>
</svg>
